<?xml version="1.0" encoding="UTF-8"?><svg id="Calque_2" xmlns="http://www.w3.org/2000/svg" xmlns:xlink="http://www.w3.org/1999/xlink" viewBox="0 0 33.82 27.83"><defs><style>.cls-1{fill:url(#Dégradé_sans_nom_253-2);}.cls-2{fill:url(#Dégradé_sans_nom_253-3);}.cls-3{fill:none;stroke:url(#Dégradé_sans_nom_253);stroke-miterlimit:10;stroke-width:3.01px;}</style><linearGradient id="Dégradé_sans_nom_253" x1="0" y1="13.91" x2="33.82" y2="13.91" gradientUnits="userSpaceOnUse"><stop offset="0" stop-color="#5700f0"/><stop offset=".17" stop-color="#5b00ef"/><stop offset=".35" stop-color="#6800ed"/><stop offset=".54" stop-color="#7e00eb"/><stop offset=".74" stop-color="#9d00e7"/><stop offset=".94" stop-color="#c300e3"/><stop offset="1" stop-color="#d100e2"/></linearGradient><linearGradient id="Dégradé_sans_nom_253-2" x1="12.19" y1="13.97" x2="22.35" y2="13.97" xlink:href="#Dégradé_sans_nom_253"/><linearGradient id="Dégradé_sans_nom_253-3" x1="11.45" y1="13.97" x2="20.82" y2="13.97" xlink:href="#Dégradé_sans_nom_253"/></defs><g id="Calque_1-2"><g><path class="cls-3" d="M16.91,4.78l4.91-3.01s6.34,3.96,10.46,6.34c.79,13.94-10.3,18.06-10.3,18.06,0,0-5.07-3.01-5.07-3.01l-5.07,3.01S.75,22.05,1.55,8.11C5.66,5.73,12,1.77,12,1.77c0,0,4.91,3.01,4.91,3.01Z"/><path class="cls-1" d="M16.91,6.53l-6.54,3.98s-.98,5.69,6.54,10.9V6.53Z"/><path class="cls-2" d="M16.91,6.53l6.47,3.98s1.05,5.69-6.47,10.9V6.53Z"/></g></g></svg>