<?xml version="1.0" encoding="utf-8"?>
<!-- Generator: Adobe Illustrator 27.0.0, SVG Export Plug-In . SVG Version: 6.00 Build 0)  -->
<svg version="1.1" id="Calque_2_00000137835851931153349090000015252144734509222070_"
	 xmlns="http://www.w3.org/2000/svg" xmlns:xlink="http://www.w3.org/1999/xlink" x="0px" y="0px" viewBox="0 0 75.5 20.3"
	 style="enable-background:new 0 0 75.5 20.3;" xml:space="preserve">
<style type="text/css">
	.st0{fill:#FFFFFF;}
	.st1{fill:none;stroke:url(#SVGID_1_);stroke-width:2.2;stroke-miterlimit:10;}
	.st2{fill:url(#SVGID_00000163766045825457002410000007433360671264182426_);}
	.st3{fill:url(#SVGID_00000025407664638331358330000003998311466307812005_);}
</style>
<g id="Calque_1-2">
	<g>
		<g>
			<path class="st0" d="M37.8,7.9h1.1l-2.3,6.9h-0.9l-2-4.7l-2,4.7h-0.9l-2.3-6.9h1.1l1.7,5.1l2.1-5h0.4l2.1,5L37.8,7.9L37.8,7.9z"
				/>
			<path class="st0" d="M46.6,11.4c0,0.1,0,0.2,0,0.4h-5.9c0.1,0.6,0.3,1.2,0.8,1.5c0.4,0.4,1,0.6,1.6,0.6c0.5,0,0.9-0.1,1.3-0.3
				c0.4-0.2,0.7-0.5,0.9-0.9h1.2c-0.3,0.7-0.7,1.3-1.3,1.7c-0.6,0.4-1.2,0.6-2,0.6c-0.7,0-1.3-0.2-1.8-0.5c-0.5-0.3-1-0.7-1.3-1.3
				s-0.5-1.2-0.5-1.8s0.2-1.3,0.5-1.8c0.3-0.6,0.7-1,1.3-1.3c0.5-0.3,1.1-0.5,1.8-0.5s1.3,0.2,1.8,0.5c0.5,0.3,0.9,0.8,1.2,1.3
				C46.4,10.1,46.6,10.7,46.6,11.4L46.6,11.4z M43.1,8.8c-0.6,0-1.2,0.2-1.6,0.5c-0.4,0.4-0.7,0.8-0.8,1.4h4.8
				c-0.1-0.6-0.4-1.1-0.8-1.4C44.2,9,43.7,8.8,43.1,8.8L43.1,8.8z"/>
			<path class="st0" d="M51.1,15c-1,0-1.9-0.3-2.5-0.8s-1-1.3-1-2.2h2c0,0.4,0.2,0.7,0.4,0.9c0.3,0.2,0.7,0.3,1.1,0.3
				c0.4,0,0.7-0.1,1-0.3c0.3-0.2,0.4-0.4,0.4-0.8c0-0.1,0-0.2-0.1-0.3c0-0.1-0.1-0.2-0.2-0.2s-0.2-0.1-0.3-0.2
				c-0.1-0.1-0.2-0.1-0.4-0.1c-0.2-0.1-0.3-0.1-0.4-0.1s-0.3-0.1-0.5-0.1c-0.8-0.2-1.3-0.4-1.6-0.5c-0.8-0.4-1.2-1-1.3-1.8
				c0-0.1,0-0.2,0-0.4c0-0.8,0.3-1.5,0.9-2S50,5.7,51,5.7s1.8,0.3,2.4,0.8s0.8,1.2,0.8,2.1h-1.9c0-0.4-0.1-0.7-0.4-0.8
				s-0.6-0.3-1-0.3c-0.3,0-0.6,0.1-0.9,0.2c-0.2,0.2-0.4,0.4-0.4,0.6c0,0.1,0,0.2,0.1,0.3c0.1,0.1,0.1,0.2,0.2,0.2
				c0.1,0.1,0.2,0.1,0.4,0.2s0.3,0.1,0.5,0.1s0.3,0.1,0.5,0.1c0.2,0.1,0.4,0.1,0.5,0.1s0.3,0.1,0.5,0.1c0.2,0.1,0.4,0.1,0.5,0.2
				c0.1,0.1,0.3,0.1,0.4,0.2c0.2,0.1,0.3,0.2,0.4,0.3s0.2,0.2,0.3,0.3c0.1,0.1,0.2,0.3,0.3,0.4s0.1,0.3,0.2,0.5
				c0,0.2,0.1,0.4,0.1,0.6c0,0.5-0.1,0.9-0.3,1.3s-0.4,0.7-0.7,0.9s-0.7,0.4-1.1,0.5C52,14.9,51.5,15,51.1,15L51.1,15z"/>
			<path class="st0" d="M61.8,11.6v1.6H61v1.6h-1.7v-1.6h-4.1v-0.3L58,6.4h1.8l-2.3,5.3h1.8l0.3-2H61v2L61.8,11.6L61.8,11.6z"/>
			<path class="st0" d="M68.5,7.7h-3.4v2h3.1v1.8h-3.1v3.4h-1.9v-9h5.3L68.5,7.7L68.5,7.7z"/>
			<path class="st0" d="M71.9,13.1h3.6v1.8H70v-9h5.4v1.8h-3.4v1.8H75v1.8h-3.1L71.9,13.1L71.9,13.1z"/>
		</g>
		<g>
			
				<linearGradient id="SVGID_1_" gradientUnits="userSpaceOnUse" x1="2.749315e-04" y1="11.8346" x2="24.7197" y2="11.8346" gradientTransform="matrix(1 0 0 -1 0 22)">
				<stop  offset="0" style="stop-color:#5700F0"/>
				<stop  offset="0.17" style="stop-color:#5B00EF"/>
				<stop  offset="0.35" style="stop-color:#6800ED"/>
				<stop  offset="0.54" style="stop-color:#7E00EB"/>
				<stop  offset="0.74" style="stop-color:#9D00E7"/>
				<stop  offset="0.94" style="stop-color:#C300E3"/>
				<stop  offset="1" style="stop-color:#D100E2"/>
			</linearGradient>
			<path class="st1" d="M12.4,3.5l3.6-2.2c0,0,4.6,2.9,7.6,4.6c0.6,10.2-7.5,13.2-7.5,13.2l-3.7-2.2l-3.7,2.2c0,0-8.1-3-7.5-13.2
				c3-1.7,7.6-4.6,7.6-4.6L12.4,3.5L12.4,3.5z"/>
			
				<linearGradient id="SVGID_00000151516910818365668230000001720364466733734557_" gradientUnits="userSpaceOnUse" x1="8.91" y1="11.79" x2="16.34" y2="11.79" gradientTransform="matrix(1 0 0 -1 0 22)">
				<stop  offset="0" style="stop-color:#5700F0"/>
				<stop  offset="0.17" style="stop-color:#5B00EF"/>
				<stop  offset="0.35" style="stop-color:#6800ED"/>
				<stop  offset="0.54" style="stop-color:#7E00EB"/>
				<stop  offset="0.74" style="stop-color:#9D00E7"/>
				<stop  offset="0.94" style="stop-color:#C300E3"/>
				<stop  offset="1" style="stop-color:#D100E2"/>
			</linearGradient>
			<path style="fill:url(#SVGID_00000151516910818365668230000001720364466733734557_);" d="M12.4,4.8L7.6,7.7c0,0-0.7,4.2,4.8,8
				V4.8z"/>
			
				<linearGradient id="SVGID_00000124852256833563612150000016213925385278939535_" gradientUnits="userSpaceOnUse" x1="8.37" y1="11.79" x2="15.22" y2="11.79" gradientTransform="matrix(1 0 0 -1 0 22)">
				<stop  offset="0" style="stop-color:#5700F0"/>
				<stop  offset="0.17" style="stop-color:#5B00EF"/>
				<stop  offset="0.35" style="stop-color:#6800ED"/>
				<stop  offset="0.54" style="stop-color:#7E00EB"/>
				<stop  offset="0.74" style="stop-color:#9D00E7"/>
				<stop  offset="0.94" style="stop-color:#C300E3"/>
				<stop  offset="1" style="stop-color:#D100E2"/>
			</linearGradient>
			<path style="fill:url(#SVGID_00000124852256833563612150000016213925385278939535_);" d="M12.4,4.8l4.7,2.9c0,0,0.8,4.2-4.7,8
				C12.4,15.6,12.4,4.8,12.4,4.8z"/>
		</g>
	</g>
</g>
</svg>
